<svg xmlns="http://www.w3.org/2000/svg" xmlns:xlink="http://www.w3.org/1999/xlink" width="500" zoomAndPan="magnify" viewBox="0 0 375 374.999991" height="500" preserveAspectRatio="xMidYMid meet" version="1.0"><defs><clipPath id="1fb3f45726"><path d="M 109 34.777344 L 351.472656 34.777344 L 351.472656 277 L 109 277 Z M 109 34.777344 " clip-rule="nonzero"/></clipPath><clipPath id="7ab7184b61"><path d="M 23.722656 39 L 309 39 L 309 334 L 23.722656 334 Z M 23.722656 39 " clip-rule="nonzero"/></clipPath></defs><g clip-path="url(#1fb3f45726)"><path fill="#5cb6f9" d="M 230.632812 34.824219 C 280.984375 34.824219 324.175781 65.75 342.207031 109.628906 L 297.34375 111.949219 L 344.054688 114.375 C 346.078125 119.925781 347.695312 125.652344 348.855469 131.605469 L 270.351562 135.597656 L 350.25 139.699219 C 350.886719 144.84375 351.230469 150.167969 351.230469 155.484375 C 351.230469 163.054688 350.539062 170.402344 349.207031 177.566406 L 281.164062 181.027344 L 347.761719 184.441406 C 344.925781 195.769531 340.589844 206.464844 334.808594 216.242188 L 219.125 222.195312 L 327.230469 227.683594 C 320.8125 236.238281 313.355469 243.925781 304.976562 250.515625 L 197.214844 256.011719 L 289.601562 260.746094 C 272.140625 270.515625 252.019531 276.125 230.632812 276.125 C 198.832031 276.125 169.929688 263.867188 148.421875 243.808594 L 216.414062 240.28125 L 141.203125 236.46875 C 133.394531 227.851562 126.804688 218.144531 121.773438 207.558594 L 195.664062 203.746094 L 118.367188 199.816406 C 117.21875 196.8125 116.113281 193.695312 115.191406 190.566406 L 153.117188 188.65625 L 114.03125 186.628906 C 111.378906 176.691406 109.992188 166.277344 109.992188 155.46875 C 109.992188 142.171875 112.128906 129.335938 116.113281 117.371094 L 189.539062 113.613281 L 118.835938 109.972656 C 120.394531 106.160156 122.183594 102.402344 124.09375 98.761719 L 159.355469 96.972656 L 126.0625 95.230469 C 146.917969 59.160156 185.878906 34.824219 230.632812 34.824219 Z M 230.632812 34.824219 " fill-opacity="1" fill-rule="evenodd"/></g><g clip-path="url(#7ab7184b61)"><path fill="#f4f6fc" d="M 169.875 154.894531 C 167.964844 155.703125 166.058594 156.632812 164.148438 157.613281 C 164.671875 159.527344 165.25 161.835938 165.9375 164.441406 C 167.210938 161.378906 168.484375 158.195312 169.875 154.894531 Z M 151.3125 290.414062 L 151.253906 310.9375 L 158.539062 288.675781 C 175.191406 287.695312 211.898438 287.867188 219.355469 288.097656 C 225.308594 288.265625 205.820312 295.960938 212.648438 296.246094 C 237.449219 297.167969 251.324219 297.691406 264.621094 300.753906 C 273.347656 302.722656 240.21875 307.808594 248.84375 309.484375 C 275.429688 314.046875 312.839844 311.625 308.097656 317.234375 C 273.464844 340.1875 122.753906 336.945312 122.753906 320.351562 C 103.792969 239.9375 96.394531 203.058594 101.253906 111.65625 C 89.746094 124.664062 80.730469 140.449219 75.0625 160.039062 C 73.21875 156.742188 71.363281 153.449219 69.511719 150.152344 C 71.421875 159.746094 69.101562 166.800781 70.957031 176.398438 C 69.222656 189.113281 65.34375 205.125 63.613281 217.90625 C 43.320312 139.8125 66.097656 126.453125 96.394531 99.691406 C 91.761719 99.460938 85 100.441406 80.378906 100.214844 C 80.378906 96.636719 82.226562 92.40625 82.226562 88.820312 C 79.449219 92.75 77.023438 96.21875 74.246094 100.214844 C 68.121094 102.410156 59.792969 105.652344 53.667969 107.839844 C 54.589844 102.171875 55.636719 96.515625 56.617188 90.789062 C 52.746094 96.980469 49.796875 104.550781 45.917969 110.730469 C 38.871094 116.277344 30.835938 120.382812 23.722656 125.9375 C 23.722656 125.9375 40.714844 83.097656 48.867188 78.066406 C 57.015625 72.980469 93.152344 82.917969 93.152344 82.917969 C 93.152344 82.917969 87.019531 49.386719 88.816406 44.070312 C 90.613281 38.753906 92.113281 40.949219 95.871094 42.738281 C 99.628906 44.480469 110.03125 51.820312 110.03125 51.820312 C 106.390625 53.550781 102.746094 55.234375 99.105469 56.90625 C 100.3125 59.332031 101.710938 58.183594 102.917969 60.605469 C 102.625 64.886719 102.167969 72.800781 101.871094 77.078125 C 101.871094 77.078125 111.640625 54.300781 120.664062 45.628906 C 129.679688 36.957031 138.066406 39.441406 144.132812 40.429688 C 150.203125 41.472656 174.601562 53.835938 174.601562 53.835938 C 174.601562 53.835938 150.667969 56.957031 147.261719 58.867188 C 143.847656 60.777344 130.726562 56.613281 130.726562 56.613281 C 133.148438 60.3125 136.210938 60.140625 138.703125 63.785156 C 132.980469 68.0625 129.164062 72.105469 123.441406 76.328125 C 120.320312 75.054688 114.652344 77.773438 111.535156 76.441406 C 113.5 80.027344 116.734375 77.078125 118.703125 80.664062 C 115.46875 83.441406 110.953125 92.75 107.71875 95.519531 C 107.71875 95.519531 138.132812 107.945312 143.390625 115.117188 C 143.675781 115.515625 143.96875 115.925781 144.257812 116.390625 C 155.070312 121.128906 170.503906 132.0625 170.503906 132.0625 C 170.503906 132.0625 173.859375 106.453125 176.570312 103.324219 C 179.347656 100.148438 180.039062 102.164062 182.582031 104.65625 C 185.1875 107.148438 191.777344 115.695312 191.777344 115.695312 C 188.429688 115.695312 185.070312 115.695312 181.714844 115.695312 C 182.066406 117.78125 183.503906 117.429688 183.855469 119.511719 C 182.582031 122.457031 180.269531 127.832031 178.945312 130.78125 C 178.945312 130.78125 192.414062 117.949219 201.835938 114.765625 C 211.203125 111.589844 217.335938 116.097656 222.015625 118.75 C 226.644531 121.46875 243.175781 138.113281 243.175781 138.113281 C 243.175781 138.113281 223.175781 132.503906 219.933594 132.738281 C 216.699219 132.96875 207.160156 125.742188 207.160156 125.742188 C 208.253906 129.15625 210.804688 130.019531 211.898438 133.433594 C 206.230469 134.527344 202.121094 136.152344 196.519531 137.246094 C 194.265625 135.34375 189.066406 135.394531 186.867188 133.433594 C 187.5625 136.609375 190.917969 135.574219 191.605469 138.75 C 188.3125 139.625 182.417969 144.703125 179.0625 145.625 C 179.0625 145.625 200.503906 164.304688 202.9375 171.007812 C 205.363281 177.769531 209.472656 199.851562 209.300781 204.832031 C 209.128906 209.75 207.570312 236.339844 207.570312 236.339844 C 202.949219 228.1875 199.25 215.644531 194.617188 207.488281 C 196.40625 198.527344 197.328125 193.964844 199.125 185.003906 C 196.519531 188.476562 193.980469 191.9375 191.375 195.410156 C 189.636719 189.105469 187.847656 182.800781 186.117188 176.503906 C 186.640625 171.996094 187.152344 167.480469 187.621094 162.972656 C 185.660156 164.015625 183.691406 165.054688 181.667969 166.097656 C 179.289062 163.039062 175.710938 159.222656 173.335938 156.097656 C 171.253906 161.070312 169.351562 166.097656 167.667969 171.246094 C 170.445312 182.226562 173.394531 194.078125 173.394531 194.078125 C 170.332031 191.128906 167.144531 187.371094 163.914062 183.320312 C 153.621094 220.40625 151.664062 259.480469 151.3125 290.414062 Z M 150.210938 166.753906 C 145.472656 170.632812 141.023438 175.140625 136.859375 180.398438 C 136.21875 177.449219 135.527344 174.558594 134.890625 171.613281 C 134.023438 178.953125 130.4375 183.175781 129.574219 190.515625 C 125.292969 198.4375 118.761719 207.746094 114.195312 215.832031 C 120.433594 247.746094 128.878906 277.113281 136.21875 301.285156 C 139.917969 251.796875 143.390625 223.761719 160.328125 178.78125 C 156.921875 174.496094 153.507812 170.222656 150.210938 166.753906 Z M 113.625 212.828125 C 116.457031 171.144531 128.542969 158.773438 146.632812 151.71875 L 144.957031 137.617188 L 143.75 137.5 L 140.109375 151.261719 L 129.125 133.628906 C 128.03125 134.554688 126.8125 135.417969 125.652344 136.234375 C 118.949219 137.738281 111.894531 138.089844 105.1875 139.46875 C 105.933594 164.5 109.164062 189.300781 113.625 212.828125 Z M 160.5625 147.269531 C 163.285156 146.460938 166.050781 145.699219 168.949219 144.890625 C 165.773438 143.445312 161.085938 142.125 157.503906 140.679688 C 158.652344 143.046875 159.699219 145.242188 160.5625 147.269531 Z M 156.515625 138.773438 C 157.671875 136.691406 159.519531 134.722656 160.222656 132.648438 C 158.425781 133.695312 156.75 134.675781 155.011719 135.722656 C 155.535156 136.691406 156.054688 137.730469 156.515625 138.773438 Z M 105.179688 138.539062 C 108.308594 135.417969 117.324219 126.632812 125.1875 120.507812 L 123.683594 112.8125 C 121.890625 115.125 120.15625 117.4375 118.367188 119.753906 C 114.613281 117.09375 109.230469 114.144531 105.472656 111.492188 C 105.007812 120.507812 104.953125 129.523438 105.179688 138.539062 Z M 105.179688 138.539062 " fill-opacity="1" fill-rule="evenodd"/></g></svg>