<svg xmlns="http://www.w3.org/2000/svg" xmlns:xlink="http://www.w3.org/1999/xlink" width="500" zoomAndPan="magnify" viewBox="0 0 375 374.999991" height="500" preserveAspectRatio="xMidYMid meet" version="1.0"><defs><g/><clipPath id="d0171a4759"><path d="M 121 6.847656 L 327.191406 6.847656 L 327.191406 214 L 121 214 Z M 121 6.847656 " clip-rule="nonzero"/></clipPath><clipPath id="a6d2409c57"><path d="M 47.441406 10 L 291 10 L 291 263 L 47.441406 263 Z M 47.441406 10 " clip-rule="nonzero"/></clipPath></defs><g fill="#f4f6fc" fill-opacity="1"><g transform="translate(51.584775, 327.48776)"><g><path d="M 23.828125 -20.078125 C 25.242188 -19.859375 26.539062 -19.28125 27.71875 -18.34375 C 28.894531 -17.414062 29.828125 -16.257812 30.515625 -14.875 C 31.203125 -13.5 31.546875 -12.023438 31.546875 -10.453125 C 31.546875 -8.484375 31.039062 -6.703125 30.03125 -5.109375 C 29.03125 -3.523438 27.566406 -2.273438 25.640625 -1.359375 C 23.722656 -0.453125 21.457031 0 18.84375 0 L 4.3125 0 L 4.3125 -38.984375 L 18.296875 -38.984375 C 20.941406 -38.984375 23.195312 -38.546875 25.0625 -37.671875 C 26.925781 -36.796875 28.320312 -35.613281 29.25 -34.125 C 30.1875 -32.632812 30.65625 -30.957031 30.65625 -29.09375 C 30.65625 -26.78125 30.03125 -24.867188 28.78125 -23.359375 C 27.53125 -21.847656 25.878906 -20.753906 23.828125 -20.078125 Z M 9.390625 -22.15625 L 17.953125 -22.15625 C 20.335938 -22.15625 22.179688 -22.710938 23.484375 -23.828125 C 24.796875 -24.941406 25.453125 -26.488281 25.453125 -28.46875 C 25.453125 -30.445312 24.796875 -31.992188 23.484375 -33.109375 C 22.179688 -34.234375 20.300781 -34.796875 17.84375 -34.796875 L 9.390625 -34.796875 Z M 18.40625 -4.203125 C 20.9375 -4.203125 22.910156 -4.796875 24.328125 -5.984375 C 25.742188 -7.179688 26.453125 -8.84375 26.453125 -10.96875 C 26.453125 -13.125 25.707031 -14.828125 24.21875 -16.078125 C 22.726562 -17.328125 20.734375 -17.953125 18.234375 -17.953125 L 9.390625 -17.953125 L 9.390625 -4.203125 Z M 18.40625 -4.203125 "/></g></g></g><g fill="#f4f6fc" fill-opacity="1"><g transform="translate(85.876037, 327.48776)"><g><path d="M 32.28125 -16.5 C 32.28125 -15.53125 32.222656 -14.503906 32.109375 -13.421875 L 7.609375 -13.421875 C 7.796875 -10.398438 8.828125 -8.039062 10.703125 -6.34375 C 12.585938 -4.644531 14.875 -3.796875 17.5625 -3.796875 C 19.757812 -3.796875 21.59375 -4.304688 23.0625 -5.328125 C 24.539062 -6.359375 25.578125 -7.734375 26.171875 -9.453125 L 31.65625 -9.453125 C 30.84375 -6.503906 29.203125 -4.109375 26.734375 -2.265625 C 24.273438 -0.421875 21.21875 0.5 17.5625 0.5 C 14.65625 0.5 12.054688 -0.148438 9.765625 -1.453125 C 7.472656 -2.753906 5.671875 -4.609375 4.359375 -7.015625 C 3.054688 -9.421875 2.40625 -12.210938 2.40625 -15.390625 C 2.40625 -18.554688 3.035156 -21.332031 4.296875 -23.71875 C 5.566406 -26.101562 7.347656 -27.9375 9.640625 -29.21875 C 11.941406 -30.507812 14.582031 -31.15625 17.5625 -31.15625 C 20.46875 -31.15625 23.039062 -30.519531 25.28125 -29.25 C 27.519531 -27.988281 29.242188 -26.25 30.453125 -24.03125 C 31.671875 -21.8125 32.28125 -19.300781 32.28125 -16.5 Z M 27.015625 -17.5625 C 27.015625 -19.5 26.582031 -21.164062 25.71875 -22.5625 C 24.863281 -23.96875 23.703125 -25.03125 22.234375 -25.75 C 20.765625 -26.476562 19.132812 -26.84375 17.34375 -26.84375 C 14.769531 -26.84375 12.578125 -26.019531 10.765625 -24.375 C 8.960938 -22.738281 7.925781 -20.46875 7.65625 -17.5625 Z M 27.015625 -17.5625 "/></g></g></g><g fill="#f4f6fc" fill-opacity="1"><g transform="translate(120.558887, 327.48776)"><g><path d="M 2.40625 -15.4375 C 2.40625 -18.570312 3.035156 -21.320312 4.296875 -23.6875 C 5.566406 -26.050781 7.3125 -27.882812 9.53125 -29.1875 C 11.75 -30.5 14.222656 -31.15625 16.953125 -31.15625 C 19.640625 -31.15625 21.96875 -30.578125 23.9375 -29.421875 C 25.914062 -28.265625 27.390625 -26.8125 28.359375 -25.0625 L 28.359375 -30.65625 L 33.5 -30.65625 L 33.5 0 L 28.359375 0 L 28.359375 -5.703125 C 27.347656 -3.910156 25.84375 -2.425781 23.84375 -1.25 C 21.851562 -0.0820312 19.535156 0.5 16.890625 0.5 C 14.171875 0.5 11.707031 -0.171875 9.5 -1.515625 C 7.300781 -2.859375 5.566406 -4.738281 4.296875 -7.15625 C 3.035156 -9.582031 2.40625 -12.34375 2.40625 -15.4375 Z M 28.359375 -15.390625 C 28.359375 -17.691406 27.890625 -19.703125 26.953125 -21.421875 C 26.023438 -23.140625 24.769531 -24.453125 23.1875 -25.359375 C 21.601562 -26.273438 19.859375 -26.734375 17.953125 -26.734375 C 16.054688 -26.734375 14.320312 -26.285156 12.75 -25.390625 C 11.1875 -24.492188 9.9375 -23.1875 9 -21.46875 C 8.070312 -19.757812 7.609375 -17.75 7.609375 -15.4375 C 7.609375 -13.09375 8.070312 -11.050781 9 -9.3125 C 9.9375 -7.582031 11.1875 -6.257812 12.75 -5.34375 C 14.320312 -4.425781 16.054688 -3.96875 17.953125 -3.96875 C 19.859375 -3.96875 21.601562 -4.425781 23.1875 -5.34375 C 24.769531 -6.257812 26.023438 -7.582031 26.953125 -9.3125 C 27.890625 -11.050781 28.359375 -13.078125 28.359375 -15.390625 Z M 28.359375 -15.390625 "/></g></g></g><g fill="#f4f6fc" fill-opacity="1"><g transform="translate(158.374384, 327.48776)"><g><path d="M 31.5 -30.65625 L 31.5 0 L 26.40625 0 L 26.40625 -4.53125 C 25.4375 -2.96875 24.082031 -1.742188 22.34375 -0.859375 C 20.613281 0.015625 18.703125 0.453125 16.609375 0.453125 C 14.222656 0.453125 12.078125 -0.0390625 10.171875 -1.03125 C 8.273438 -2.019531 6.773438 -3.503906 5.671875 -5.484375 C 4.578125 -7.460938 4.03125 -9.867188 4.03125 -12.703125 L 4.03125 -30.65625 L 9.0625 -30.65625 L 9.0625 -13.375 C 9.0625 -10.351562 9.828125 -8.03125 11.359375 -6.40625 C 12.890625 -4.78125 14.976562 -3.96875 17.625 -3.96875 C 20.34375 -3.96875 22.484375 -4.804688 24.046875 -6.484375 C 25.617188 -8.160156 26.40625 -10.601562 26.40625 -13.8125 L 26.40625 -30.65625 Z M 31.5 -30.65625 "/></g></g></g><g fill="#f4f6fc" fill-opacity="1"><g transform="translate(194.176041, 327.48776)"><g><path d="M 10.515625 -26.453125 L 10.515625 -8.390625 C 10.515625 -6.898438 10.832031 -5.847656 11.46875 -5.234375 C 12.101562 -4.617188 13.203125 -4.3125 14.765625 -4.3125 L 18.515625 -4.3125 L 18.515625 0 L 13.921875 0 C 11.085938 0 8.960938 -0.648438 7.546875 -1.953125 C 6.128906 -3.265625 5.421875 -5.410156 5.421875 -8.390625 L 5.421875 -26.453125 L 1.453125 -26.453125 L 1.453125 -30.65625 L 5.421875 -30.65625 L 5.421875 -38.375 L 10.515625 -38.375 L 10.515625 -30.65625 L 18.515625 -30.65625 L 18.515625 -26.453125 Z M 10.515625 -26.453125 "/></g></g></g><g fill="#f4f6fc" fill-opacity="1"><g transform="translate(214.538228, 327.48776)"><g><path d="M 30.703125 -30.65625 L 12.25 14.4375 L 7 14.4375 L 13.03125 -0.328125 L 0.671875 -30.65625 L 6.328125 -30.65625 L 15.9375 -5.8125 L 25.453125 -30.65625 Z M 30.703125 -30.65625 "/></g></g></g><g fill="#f4f6fc" fill-opacity="1"><g transform="translate(246.0325, 327.48776)"><g/></g></g><g fill="#f4f6fc" fill-opacity="1"><g transform="translate(260.968496, 327.48776)"><g><path d="M 21.984375 0.390625 C 18.367188 0.390625 15.066406 -0.457031 12.078125 -2.15625 C 9.097656 -3.851562 6.738281 -6.21875 5 -9.25 C 3.269531 -12.289062 2.40625 -15.710938 2.40625 -19.515625 C 2.40625 -23.328125 3.269531 -26.75 5 -29.78125 C 6.738281 -32.820312 9.097656 -35.191406 12.078125 -36.890625 C 15.066406 -38.585938 18.367188 -39.4375 21.984375 -39.4375 C 25.640625 -39.4375 28.957031 -38.585938 31.9375 -36.890625 C 34.925781 -35.191406 37.273438 -32.832031 38.984375 -29.8125 C 40.703125 -26.789062 41.5625 -23.359375 41.5625 -19.515625 C 41.5625 -15.679688 40.703125 -12.253906 38.984375 -9.234375 C 37.273438 -6.210938 34.925781 -3.851562 31.9375 -2.15625 C 28.957031 -0.457031 25.640625 0.390625 21.984375 0.390625 Z M 21.984375 -4.03125 C 24.703125 -4.03125 27.148438 -4.660156 29.328125 -5.921875 C 31.515625 -7.191406 33.234375 -9 34.484375 -11.34375 C 35.734375 -13.695312 36.359375 -16.421875 36.359375 -19.515625 C 36.359375 -22.648438 35.734375 -25.382812 34.484375 -27.71875 C 33.234375 -30.050781 31.523438 -31.847656 29.359375 -33.109375 C 27.203125 -34.378906 24.742188 -35.015625 21.984375 -35.015625 C 19.222656 -35.015625 16.757812 -34.378906 14.59375 -33.109375 C 12.4375 -31.847656 10.734375 -30.050781 9.484375 -27.71875 C 8.234375 -25.382812 7.609375 -22.648438 7.609375 -19.515625 C 7.609375 -16.421875 8.234375 -13.695312 9.484375 -11.34375 C 10.734375 -9 12.445312 -7.191406 14.625 -5.921875 C 16.8125 -4.660156 19.265625 -4.03125 21.984375 -4.03125 Z M 21.984375 -4.03125 "/></g></g></g><g fill="#f4f6fc" fill-opacity="1"><g transform="translate(304.937404, 327.48776)"><g><path d="M 16.78125 -26.453125 L 10.34375 -26.453125 L 10.34375 0 L 5.265625 0 L 5.265625 -26.453125 L 1.28125 -26.453125 L 1.28125 -30.65625 L 5.265625 -30.65625 L 5.265625 -32.828125 C 5.265625 -36.265625 6.148438 -38.773438 7.921875 -40.359375 C 9.691406 -41.941406 12.535156 -42.734375 16.453125 -42.734375 L 16.453125 -38.484375 C 14.210938 -38.484375 12.632812 -38.046875 11.71875 -37.171875 C 10.800781 -36.296875 10.34375 -34.847656 10.34375 -32.828125 L 10.34375 -30.65625 L 16.78125 -30.65625 Z M 16.78125 -26.453125 "/></g></g></g><g fill="#f4f6fc" fill-opacity="1"><g transform="translate(131.360239, 360.801753)"><g><path d="M 4.1875 -11.09375 C 4.644531 -11.914062 5.320312 -12.582031 6.21875 -13.09375 C 7.113281 -13.601562 8.132812 -13.859375 9.28125 -13.859375 C 10.507812 -13.859375 11.613281 -13.566406 12.59375 -12.984375 C 13.570312 -12.410156 14.34375 -11.59375 14.90625 -10.53125 C 15.46875 -9.476562 15.75 -8.257812 15.75 -6.875 C 15.75 -5.488281 15.46875 -4.253906 14.90625 -3.171875 C 14.34375 -2.097656 13.566406 -1.265625 12.578125 -0.671875 C 11.585938 -0.078125 10.488281 0.21875 9.28125 0.21875 C 8.101562 0.21875 7.070312 -0.0351562 6.1875 -0.546875 C 5.300781 -1.054688 4.632812 -1.710938 4.1875 -2.515625 L 4.1875 0 L 1.921875 0 L 1.921875 -18.421875 L 4.1875 -18.421875 Z M 13.4375 -6.875 C 13.4375 -7.894531 13.226562 -8.785156 12.8125 -9.546875 C 12.40625 -10.316406 11.847656 -10.898438 11.140625 -11.296875 C 10.429688 -11.691406 9.65625 -11.890625 8.8125 -11.890625 C 7.976562 -11.890625 7.207031 -11.6875 6.5 -11.28125 C 5.800781 -10.875 5.238281 -10.285156 4.8125 -9.515625 C 4.394531 -8.742188 4.1875 -7.851562 4.1875 -6.84375 C 4.1875 -5.8125 4.394531 -4.910156 4.8125 -4.140625 C 5.238281 -3.367188 5.800781 -2.78125 6.5 -2.375 C 7.207031 -1.96875 7.976562 -1.765625 8.8125 -1.765625 C 9.65625 -1.765625 10.429688 -1.96875 11.140625 -2.375 C 11.847656 -2.78125 12.40625 -3.367188 12.8125 -4.140625 C 13.226562 -4.910156 13.4375 -5.820312 13.4375 -6.875 Z M 13.4375 -6.875 "/></g></g></g><g fill="#f4f6fc" fill-opacity="1"><g transform="translate(148.803054, 360.801753)"><g><path d="M 14.359375 -7.34375 C 14.359375 -6.914062 14.332031 -6.457031 14.28125 -5.96875 L 3.390625 -5.96875 C 3.472656 -4.625 3.929688 -3.570312 4.765625 -2.8125 C 5.609375 -2.0625 6.625 -1.6875 7.8125 -1.6875 C 8.789062 -1.6875 9.609375 -1.914062 10.265625 -2.375 C 10.921875 -2.832031 11.382812 -3.441406 11.65625 -4.203125 L 14.09375 -4.203125 C 13.726562 -2.890625 12.992188 -1.820312 11.890625 -1 C 10.796875 -0.1875 9.4375 0.21875 7.8125 0.21875 C 6.519531 0.21875 5.363281 -0.0664062 4.34375 -0.640625 C 3.320312 -1.222656 2.519531 -2.050781 1.9375 -3.125 C 1.351562 -4.195312 1.0625 -5.4375 1.0625 -6.84375 C 1.0625 -8.25 1.34375 -9.484375 1.90625 -10.546875 C 2.476562 -11.609375 3.273438 -12.425781 4.296875 -13 C 5.316406 -13.570312 6.488281 -13.859375 7.8125 -13.859375 C 9.101562 -13.859375 10.25 -13.578125 11.25 -13.015625 C 12.25 -12.453125 13.015625 -11.675781 13.546875 -10.6875 C 14.085938 -9.695312 14.359375 -8.582031 14.359375 -7.34375 Z M 12.015625 -7.8125 C 12.015625 -8.675781 11.820312 -9.421875 11.4375 -10.046875 C 11.0625 -10.671875 10.546875 -11.144531 9.890625 -11.46875 C 9.234375 -11.789062 8.507812 -11.953125 7.71875 -11.953125 C 6.570312 -11.953125 5.59375 -11.582031 4.78125 -10.84375 C 3.976562 -10.113281 3.519531 -9.101562 3.40625 -7.8125 Z M 12.015625 -7.8125 "/></g></g></g><g fill="#f4f6fc" fill-opacity="1"><g transform="translate(164.852467, 360.801753)"><g><path d="M 1.0625 -6.875 C 1.0625 -8.257812 1.34375 -9.476562 1.90625 -10.53125 C 2.476562 -11.59375 3.253906 -12.410156 4.234375 -12.984375 C 5.222656 -13.566406 6.328125 -13.859375 7.546875 -13.859375 C 8.734375 -13.859375 9.765625 -13.601562 10.640625 -13.09375 C 11.523438 -12.582031 12.1875 -11.9375 12.625 -11.15625 L 12.625 -13.640625 L 14.90625 -13.640625 L 14.90625 0 L 12.625 0 L 12.625 -2.53125 C 12.175781 -1.738281 11.503906 -1.082031 10.609375 -0.5625 C 9.722656 -0.0390625 8.691406 0.21875 7.515625 0.21875 C 6.304688 0.21875 5.210938 -0.078125 4.234375 -0.671875 C 3.253906 -1.265625 2.476562 -2.097656 1.90625 -3.171875 C 1.34375 -4.253906 1.0625 -5.488281 1.0625 -6.875 Z M 12.625 -6.84375 C 12.625 -7.875 12.414062 -8.769531 12 -9.53125 C 11.582031 -10.289062 11.019531 -10.875 10.3125 -11.28125 C 9.613281 -11.6875 8.835938 -11.890625 7.984375 -11.890625 C 7.140625 -11.890625 6.367188 -11.691406 5.671875 -11.296875 C 4.972656 -10.898438 4.414062 -10.316406 4 -9.546875 C 3.59375 -8.785156 3.390625 -7.894531 3.390625 -6.875 C 3.390625 -5.820312 3.59375 -4.910156 4 -4.140625 C 4.414062 -3.367188 4.972656 -2.78125 5.671875 -2.375 C 6.367188 -1.96875 7.140625 -1.765625 7.984375 -1.765625 C 8.835938 -1.765625 9.613281 -1.96875 10.3125 -2.375 C 11.019531 -2.78125 11.582031 -3.367188 12 -4.140625 C 12.414062 -4.910156 12.625 -5.8125 12.625 -6.84375 Z M 12.625 -6.84375 "/></g></g></g><g fill="#f4f6fc" fill-opacity="1"><g transform="translate(182.295282, 360.801753)"><g><path d="M 1.0625 -6.84375 C 1.0625 -8.25 1.34375 -9.476562 1.90625 -10.53125 C 2.476562 -11.59375 3.265625 -12.410156 4.265625 -12.984375 C 5.273438 -13.566406 6.425781 -13.859375 7.71875 -13.859375 C 9.394531 -13.859375 10.773438 -13.453125 11.859375 -12.640625 C 12.941406 -11.828125 13.660156 -10.703125 14.015625 -9.265625 L 11.578125 -9.265625 C 11.335938 -10.085938 10.878906 -10.738281 10.203125 -11.21875 C 9.535156 -11.707031 8.707031 -11.953125 7.71875 -11.953125 C 6.425781 -11.953125 5.378906 -11.503906 4.578125 -10.609375 C 3.785156 -9.722656 3.390625 -8.46875 3.390625 -6.84375 C 3.390625 -5.195312 3.785156 -3.925781 4.578125 -3.03125 C 5.378906 -2.132812 6.425781 -1.6875 7.71875 -1.6875 C 8.707031 -1.6875 9.535156 -1.921875 10.203125 -2.390625 C 10.867188 -2.859375 11.328125 -3.519531 11.578125 -4.375 L 14.015625 -4.375 C 13.648438 -2.988281 12.921875 -1.875 11.828125 -1.03125 C 10.734375 -0.195312 9.363281 0.21875 7.71875 0.21875 C 6.425781 0.21875 5.273438 -0.0664062 4.265625 -0.640625 C 3.265625 -1.222656 2.476562 -2.046875 1.90625 -3.109375 C 1.34375 -4.171875 1.0625 -5.414062 1.0625 -6.84375 Z M 1.0625 -6.84375 "/></g></g></g><g fill="#f4f6fc" fill-opacity="1"><g transform="translate(198.021225, 360.801753)"><g><path d="M 8.6875 -13.890625 C 9.71875 -13.890625 10.644531 -13.664062 11.46875 -13.21875 C 12.300781 -12.78125 12.953125 -12.125 13.421875 -11.25 C 13.898438 -10.375 14.140625 -9.304688 14.140625 -8.046875 L 14.140625 0 L 11.890625 0 L 11.890625 -7.71875 C 11.890625 -9.070312 11.550781 -10.109375 10.875 -10.828125 C 10.195312 -11.554688 9.269531 -11.921875 8.09375 -11.921875 C 6.894531 -11.921875 5.941406 -11.546875 5.234375 -10.796875 C 4.535156 -10.054688 4.1875 -8.972656 4.1875 -7.546875 L 4.1875 0 L 1.921875 0 L 1.921875 -18.421875 L 4.1875 -18.421875 L 4.1875 -11.703125 C 4.632812 -12.398438 5.25 -12.9375 6.03125 -13.3125 C 6.820312 -13.695312 7.707031 -13.890625 8.6875 -13.890625 Z M 8.6875 -13.890625 "/></g></g></g><g fill="#f4f6fc" fill-opacity="1"><g transform="translate(214.568277, 360.801753)"><g><path d="M 14.359375 -7.34375 C 14.359375 -6.914062 14.332031 -6.457031 14.28125 -5.96875 L 3.390625 -5.96875 C 3.472656 -4.625 3.929688 -3.570312 4.765625 -2.8125 C 5.609375 -2.0625 6.625 -1.6875 7.8125 -1.6875 C 8.789062 -1.6875 9.609375 -1.914062 10.265625 -2.375 C 10.921875 -2.832031 11.382812 -3.441406 11.65625 -4.203125 L 14.09375 -4.203125 C 13.726562 -2.890625 12.992188 -1.820312 11.890625 -1 C 10.796875 -0.1875 9.4375 0.21875 7.8125 0.21875 C 6.519531 0.21875 5.363281 -0.0664062 4.34375 -0.640625 C 3.320312 -1.222656 2.519531 -2.050781 1.9375 -3.125 C 1.351562 -4.195312 1.0625 -5.4375 1.0625 -6.84375 C 1.0625 -8.25 1.34375 -9.484375 1.90625 -10.546875 C 2.476562 -11.609375 3.273438 -12.425781 4.296875 -13 C 5.316406 -13.570312 6.488281 -13.859375 7.8125 -13.859375 C 9.101562 -13.859375 10.25 -13.578125 11.25 -13.015625 C 12.25 -12.453125 13.015625 -11.675781 13.546875 -10.6875 C 14.085938 -9.695312 14.359375 -8.582031 14.359375 -7.34375 Z M 12.015625 -7.8125 C 12.015625 -8.675781 11.820312 -9.421875 11.4375 -10.046875 C 11.0625 -10.671875 10.546875 -11.144531 9.890625 -11.46875 C 9.234375 -11.789062 8.507812 -11.953125 7.71875 -11.953125 C 6.570312 -11.953125 5.59375 -11.582031 4.78125 -10.84375 C 3.976562 -10.113281 3.519531 -9.101562 3.40625 -7.8125 Z M 12.015625 -7.8125 "/></g></g></g><g fill="#f4f6fc" fill-opacity="1"><g transform="translate(230.617686, 360.801753)"><g><path d="M 6.75 0.21875 C 5.695312 0.21875 4.753906 0.0390625 3.921875 -0.3125 C 3.097656 -0.664062 2.445312 -1.160156 1.96875 -1.796875 C 1.488281 -2.441406 1.222656 -3.175781 1.171875 -4 L 3.515625 -4 C 3.578125 -3.320312 3.894531 -2.765625 4.46875 -2.328125 C 5.039062 -1.898438 5.789062 -1.6875 6.71875 -1.6875 C 7.582031 -1.6875 8.265625 -1.878906 8.765625 -2.265625 C 9.265625 -2.648438 9.515625 -3.128906 9.515625 -3.703125 C 9.515625 -4.304688 9.25 -4.75 8.71875 -5.03125 C 8.1875 -5.320312 7.363281 -5.613281 6.25 -5.90625 C 5.238281 -6.164062 4.410156 -6.429688 3.765625 -6.703125 C 3.128906 -6.984375 2.582031 -7.390625 2.125 -7.921875 C 1.664062 -8.460938 1.4375 -9.175781 1.4375 -10.0625 C 1.4375 -10.75 1.644531 -11.382812 2.0625 -11.96875 C 2.476562 -12.550781 3.066406 -13.007812 3.828125 -13.34375 C 4.597656 -13.6875 5.472656 -13.859375 6.453125 -13.859375 C 7.960938 -13.859375 9.179688 -13.476562 10.109375 -12.71875 C 11.035156 -11.957031 11.53125 -10.910156 11.59375 -9.578125 L 9.328125 -9.578125 C 9.285156 -10.296875 9 -10.867188 8.46875 -11.296875 C 7.945312 -11.734375 7.25 -11.953125 6.375 -11.953125 C 5.5625 -11.953125 4.910156 -11.773438 4.421875 -11.421875 C 3.941406 -11.078125 3.703125 -10.625 3.703125 -10.0625 C 3.703125 -9.613281 3.847656 -9.242188 4.140625 -8.953125 C 4.429688 -8.660156 4.796875 -8.425781 5.234375 -8.25 C 5.679688 -8.070312 6.289062 -7.878906 7.0625 -7.671875 C 8.039062 -7.398438 8.835938 -7.132812 9.453125 -6.875 C 10.066406 -6.625 10.59375 -6.238281 11.03125 -5.71875 C 11.476562 -5.207031 11.707031 -4.535156 11.71875 -3.703125 C 11.71875 -2.960938 11.507812 -2.289062 11.09375 -1.6875 C 10.6875 -1.09375 10.101562 -0.625 9.34375 -0.28125 C 8.59375 0.0507812 7.726562 0.21875 6.75 0.21875 Z M 6.75 0.21875 "/></g></g></g><g clip-path="url(#d0171a4759)"><path fill="#5cb6f9" d="M 224.386719 6.890625 C 267.449219 6.890625 304.382812 33.335938 319.804688 70.859375 L 281.4375 72.84375 L 321.382812 74.917969 C 323.113281 79.664062 324.496094 84.5625 325.488281 89.652344 L 258.355469 93.066406 L 326.683594 96.574219 C 327.226562 100.972656 327.519531 105.527344 327.519531 110.070312 C 327.519531 116.546875 326.925781 122.832031 325.789062 128.957031 L 267.601562 131.917969 L 324.554688 134.835938 C 322.128906 144.523438 318.421875 153.671875 313.476562 162.03125 L 214.546875 167.121094 L 306.996094 171.8125 C 301.507812 179.132812 295.132812 185.703125 287.964844 191.339844 L 195.808594 196.039062 L 274.816406 200.089844 C 259.886719 208.445312 242.675781 213.242188 224.386719 213.242188 C 197.191406 213.242188 172.476562 202.757812 154.082031 185.605469 L 212.230469 182.589844 L 147.910156 179.328125 C 141.234375 171.960938 135.597656 163.65625 131.296875 154.605469 L 194.484375 151.34375 L 128.382812 147.984375 C 127.398438 145.417969 126.457031 142.75 125.667969 140.074219 L 158.097656 138.441406 L 124.675781 136.707031 C 122.40625 128.207031 121.21875 119.304688 121.21875 110.058594 C 121.21875 98.6875 123.046875 87.710938 126.457031 77.480469 L 189.246094 74.265625 L 128.78125 71.152344 C 130.113281 67.890625 131.644531 64.679688 133.277344 61.5625 L 163.433594 60.035156 L 134.960938 58.546875 C 152.796875 27.699219 186.117188 6.890625 224.386719 6.890625 Z M 224.386719 6.890625 " fill-opacity="1" fill-rule="evenodd"/></g><g clip-path="url(#a6d2409c57)"><path fill="#f4f6fc" d="M 172.429688 109.570312 C 170.792969 110.261719 169.167969 111.058594 167.535156 111.894531 C 167.980469 113.527344 168.476562 115.503906 169.0625 117.734375 C 170.152344 115.113281 171.242188 112.390625 172.429688 109.570312 Z M 156.554688 225.460938 L 156.507812 243.011719 L 162.734375 223.976562 C 176.976562 223.136719 208.367188 223.285156 214.742188 223.480469 C 219.832031 223.625 203.171875 230.203125 209.007812 230.449219 C 230.21875 231.238281 242.082031 231.683594 253.453125 234.304688 C 260.917969 235.988281 232.585938 240.335938 239.960938 241.769531 C 262.699219 245.671875 294.691406 243.597656 290.632812 248.398438 C 261.015625 268.027344 132.132812 265.253906 132.132812 251.066406 C 115.917969 182.296875 109.589844 150.757812 113.746094 72.589844 C 103.90625 83.714844 96.195312 97.214844 91.347656 113.96875 C 89.769531 111.148438 88.183594 108.332031 86.601562 105.511719 C 88.234375 113.71875 86.25 119.75 87.835938 127.957031 C 86.355469 138.832031 83.039062 152.527344 81.558594 163.453125 C 64.203125 96.671875 83.679688 85.246094 109.589844 62.359375 C 105.628906 62.164062 99.847656 63.003906 95.894531 62.808594 C 95.894531 59.75 97.472656 56.128906 97.472656 53.066406 C 95.097656 56.425781 93.023438 59.390625 90.652344 62.808594 C 85.414062 64.683594 78.289062 67.457031 73.050781 69.328125 C 73.839844 64.484375 74.734375 59.644531 75.574219 54.746094 C 72.261719 60.042969 69.742188 66.515625 66.425781 71.800781 C 60.398438 76.542969 53.527344 80.054688 47.441406 84.804688 C 47.441406 84.804688 61.976562 48.167969 68.945312 43.867188 C 75.914062 39.515625 106.816406 48.015625 106.816406 48.015625 C 106.816406 48.015625 101.574219 19.339844 103.109375 14.792969 C 104.644531 10.25 105.929688 12.125 109.144531 13.65625 C 112.355469 15.144531 121.253906 21.421875 121.253906 21.421875 C 118.136719 22.902344 115.023438 24.339844 111.910156 25.773438 C 112.941406 27.847656 114.136719 26.863281 115.171875 28.9375 C 114.917969 32.597656 114.527344 39.363281 114.277344 43.023438 C 114.277344 43.023438 122.628906 23.546875 130.34375 16.128906 C 138.054688 8.710938 145.226562 10.835938 150.417969 11.679688 C 155.605469 12.574219 176.472656 23.148438 176.472656 23.148438 C 176.472656 23.148438 156.003906 25.816406 153.089844 27.449219 C 150.171875 29.082031 138.949219 25.519531 138.949219 25.519531 C 141.023438 28.683594 143.640625 28.539062 145.773438 31.652344 C 140.875 35.3125 137.617188 38.769531 132.71875 42.378906 C 130.050781 41.289062 125.207031 43.617188 122.539062 42.476562 C 124.222656 45.542969 126.988281 43.023438 128.667969 46.089844 C 125.902344 48.460938 122.042969 56.425781 119.277344 58.792969 C 119.277344 58.792969 145.285156 69.421875 149.78125 75.550781 C 150.023438 75.894531 150.277344 76.242188 150.519531 76.640625 C 159.765625 80.691406 172.964844 90.042969 172.964844 90.042969 C 172.964844 90.042969 175.835938 68.140625 178.15625 65.46875 C 180.53125 62.75 181.125 64.476562 183.296875 66.605469 C 185.523438 68.734375 191.160156 76.046875 191.160156 76.046875 C 188.296875 76.046875 185.425781 76.046875 182.554688 76.046875 C 182.855469 77.828125 184.085938 77.527344 184.386719 79.308594 C 183.296875 81.832031 181.320312 86.425781 180.1875 88.945312 C 180.1875 88.945312 191.703125 77.976562 199.761719 75.25 C 207.773438 72.535156 213.019531 76.390625 217.019531 78.660156 C 220.980469 80.984375 235.113281 95.21875 235.113281 95.21875 C 235.113281 95.21875 218.011719 90.421875 215.238281 90.621094 C 212.472656 90.816406 204.316406 84.636719 204.316406 84.636719 C 205.25 87.558594 207.429688 88.296875 208.367188 91.214844 C 203.519531 92.152344 200.007812 93.542969 195.214844 94.476562 C 193.289062 92.851562 188.839844 92.890625 186.960938 91.214844 C 187.554688 93.933594 190.425781 93.046875 191.011719 95.761719 C 188.199219 96.511719 183.15625 100.855469 180.285156 101.644531 C 180.285156 101.644531 198.625 117.613281 200.707031 123.347656 C 202.78125 129.128906 206.292969 148.015625 206.144531 152.273438 C 206 156.476562 204.664062 179.21875 204.664062 179.21875 C 200.710938 172.246094 197.550781 161.519531 193.589844 154.542969 C 195.117188 146.882812 195.90625 142.980469 197.445312 135.316406 C 195.214844 138.285156 193.042969 141.246094 190.816406 144.214844 C 189.328125 138.824219 187.800781 133.433594 186.320312 128.046875 C 186.765625 124.191406 187.207031 120.332031 187.605469 116.476562 C 185.929688 117.371094 184.246094 118.257812 182.511719 119.152344 C 180.480469 116.53125 177.421875 113.269531 175.390625 110.597656 C 173.609375 114.847656 171.980469 119.152344 170.542969 123.550781 C 172.917969 132.945312 175.4375 143.078125 175.4375 143.078125 C 172.820312 140.554688 170.097656 137.34375 167.332031 133.878906 C 158.53125 165.59375 156.855469 199.007812 156.554688 225.460938 Z M 155.613281 119.710938 C 151.5625 123.027344 147.753906 126.882812 144.195312 131.378906 C 143.648438 128.859375 143.054688 126.386719 142.511719 123.863281 C 141.769531 130.144531 138.703125 133.753906 137.964844 140.03125 C 134.304688 146.804688 128.71875 154.765625 124.816406 161.679688 C 130.148438 188.972656 137.371094 214.085938 143.648438 234.757812 C 146.8125 192.4375 149.78125 168.460938 164.265625 129.996094 C 161.351562 126.328125 158.433594 122.675781 155.613281 119.710938 Z M 124.324219 159.109375 C 126.75 123.464844 137.085938 112.886719 152.554688 106.851562 L 151.121094 94.792969 L 150.089844 94.695312 L 146.972656 106.460938 L 137.582031 91.382812 C 136.644531 92.171875 135.605469 92.914062 134.613281 93.613281 C 128.878906 94.898438 122.84375 95.195312 117.113281 96.378906 C 117.746094 117.78125 120.511719 138.992188 124.324219 159.109375 Z M 164.46875 103.046875 C 166.792969 102.355469 169.160156 101.707031 171.640625 101.015625 C 168.921875 99.777344 164.914062 98.648438 161.847656 97.410156 C 162.832031 99.4375 163.726562 101.316406 164.46875 103.046875 Z M 161.003906 95.785156 C 161.996094 94.003906 163.574219 92.320312 164.175781 90.546875 C 162.636719 91.441406 161.207031 92.277344 159.71875 93.171875 C 160.164062 94.003906 160.613281 94.890625 161.003906 95.785156 Z M 117.105469 95.582031 C 119.777344 92.914062 127.488281 85.398438 134.214844 80.160156 L 132.929688 73.582031 C 131.394531 75.558594 129.914062 77.535156 128.382812 79.519531 C 125.171875 77.242188 120.570312 74.722656 117.355469 72.453125 C 116.957031 80.160156 116.910156 87.871094 117.105469 95.582031 Z M 117.105469 95.582031 " fill-opacity="1" fill-rule="evenodd"/></g></svg>